<svg xmlns="http://www.w3.org/2000/svg" width="753.0516967773438" height="403.0627136230469" viewBox="-249.13070678710938 -336.4239501953125 753.0516967773438 403.0627136230469"><title>Neo4j Graph Visualization</title><desc>Created using Neo4j (http://www.neo4j.com/)</desc><g class="layer relationships"><g class="relationship" transform="translate(323.61315861043516 -162.37839865209293) rotate(360.10548923974693)"><path class="b-outline" fill="#A5ABB6" stroke="none" d="M 38.50762352901147,-10.835724717245364 L 38.766442574113995,-9.869798890956295 A 149.876857196347 149.876857196347 0 0 1 55.543537724321155,-13.351215681616708 L 55.39665787693097,-14.340370022673085 A 150.876857196347 150.876857196347 0 0 0 38.50762352901147,-10.835724717245364 Z M 104.01243153943328,-13.639290119350449 L 103.83708984426286,-12.654782481018088 A 149.876857196347 149.876857196347 0 0 1 120.50681952642506,-8.691034649352092 L 119.647125921424,-5.816851825396685 L 127.35652838315453,-7.1641133750088475 L 121.65307766642648,-12.523278414625967 L 120.79338406142543,-9.64909559067056 A 150.876857196347 150.876857196347 0 0 0 104.01243153943328,-13.639290119350449"/><text text-anchor="middle" pointer-events="none" font-size="8px" fill="#000000" x="79.72576157512941" y="-12.461095181376123" font-family="Helvetica Neue, Helvetica, Arial, sans-serif">RECIPIENT</text></g><g class="relationship" transform="translate(-38.9671654122681 -163.26015179721838) rotate(405.9098518734774)"><path class="b-outline" fill="#A5ABB6" stroke="none" d="M 24.018736134675446,-6.953439040707552 L 24.277555179777966,-5.987513214418485 A 419.6699309728033 419.6699309728033 0 0 1 84.48594692852453,-17.485939477007378 L 84.37059394402155,-18.479264040765997 A 420.6699309728033 420.6699309728033 0 0 0 24.018736134675446,-6.953439040707552 Z M 170.3346234047894,-19.618144378280704 L 170.24562608248064,-18.62211251301642 A 419.6699309728033 419.6699309728033 0 0 1 230.73750273961335,-8.722763949349766 L 230.03808610611463,-5.805433599049115 L 237.66117632923132,-7.577013529569512 L 231.67005825094498,-12.612537749750631 L 230.97064161744626,-9.69520739944998 A 420.6699309728033 420.6699309728033 0 0 0 170.3346234047894,-19.618144378280704"/><text text-anchor="middle" pointer-events="none" font-size="8px" fill="#000000" x="127.33006204417302" y="-17.750550419085357" font-family="Helvetica Neue, Helvetica, Arial, sans-serif">FIRST_POSSESSION</text></g><g class="relationship" transform="translate(148.38495156155608 30.138765968067773) rotate(312.30831295888106)"><path class="b-outline" fill="#A5ABB6" stroke="none" d="M 27.89582562299426,16.683012701892217 L 28.39582562299426,15.816987298107778 A 199.10264692570462 199.10264692570462 0 0 0 92.80383383600261,39.365595407272224 L 92.6273253073995,40.34989451797503 A 200.10264692570462 200.10264692570462 0 0 1 27.89582562299426,16.683012701892217 Z M 152.75862922375123,41.947491364556356 L 152.63463546095448,40.955208367227726 A 199.10264692570462 199.10264692570462 0 0 0 218.20219709568343,20.859852507677303 L 216.84226970039097,18.185792396248797 L 224.6683252548987,18.132365270566282 L 220.01543362274006,24.425265989581977 L 218.6555062274476,21.75120587815347 A 200.10264692570462 200.10264692570462 0 0 1 152.75862922375123,41.947491364556356"/><text text-anchor="middle" pointer-events="none" font-size="8px" fill="#000000" x="122.64588251783873" y="45.92127317330281" font-family="Helvetica Neue, Helvetica, Arial, sans-serif">FIRST_EVENT</text></g><g class="relationship" transform="translate(-38.9671654122681 -163.26015179721838) rotate(539.1913904702446)"><path class="b-outline" fill="#A5ABB6" stroke="none" d="M 25 0.5 L 59.34470150323874 0.5 L 59.34470150323874 -0.5 L 25 -0.5 Z M 114.83688900323874 0.5 L 149.18159050647748 0.5 L 149.18159050647748 3.5 L 156.18159050647748 0 L 149.18159050647748 -3.5 L 149.18159050647748 -0.5 L 114.83688900323874 -0.5 Z"/><text text-anchor="middle" pointer-events="none" font-size="8px" fill="#000000" x="87.09079525323874" y="3" transform="rotate(180 87.09079525323874 0)" font-family="Helvetica Neue, Helvetica, Arial, sans-serif">AT_STADIUM</text></g><g class="relationship" transform="translate(-38.9671654122681 -163.26015179721838) rotate(405.9098518734774)"><path class="b-outline" fill="#A5ABB6" stroke="none" d="M 24.018736134675446,6.953439040707552 L 24.277555179777966,5.987513214418485 A 419.6699309728033 419.6699309728033 0 0 0 86.02486917060278,17.66177408703959 L 85.91318316847928,18.655517633901525 A 420.6699309728033 420.6699309728033 0 0 1 24.018736134675446,6.953439040707552 Z M 168.78790627684205,19.753469803165103 L 168.70258574960246,18.75711624762789 A 419.6699309728033 419.6699309728033 0 0 0 230.73750273961335,8.722763949349766 L 230.03808610611463,5.805433599049115 L 237.66117632923132,7.577013529569512 L 231.67005825094498,12.612537749750631 L 230.97064161744626,9.69520739944998 A 420.6699309728033 420.6699309728033 0 0 1 168.78790627684205,19.753469803165103"/><text text-anchor="middle" pointer-events="none" font-size="8px" fill="#000000" x="127.33006204417309" y="23.750550419085357" font-family="Helvetica Neue, Helvetica, Arial, sans-serif">LAST_POSSESSION</text></g><g class="relationship" transform="translate(-38.9671654122681 -163.26015179721838) rotate(271.2723873805018)"><path class="b-outline" fill="#A5ABB6" stroke="none" d="M 24.018736134675446,-6.953439040707552 L 24.277555179777966,-5.987513214418485 A 179.42505497346386 179.42505497346386 0 0 1 41.24622694765553,-9.664558520924771 L 41.08198037890191,-10.650977835746147 A 180.42505497346386 180.42505497346386 0 0 0 24.018736134675446,-6.953439040707552 Z M 96.07057911351309,-11.31091506558775 L 95.93005316193853,-10.320838070130293 A 179.42505497346386 179.42505497346386 0 0 1 112.98208383917064,-7.052087003621777 L 112.27539478835868,-4.136509773387171 L 119.90287888485338,-5.889075423432978 L 113.92433590691991,-10.93952331060125 L 113.21764685610795,-8.023946080366645 A 180.42505497346386 180.42505497346386 0 0 0 96.07057911351309,-11.31091506558775"/><text text-anchor="middle" pointer-events="none" font-size="8px" fill="#000000" x="68.55698912808087" y="-9.588317593771848" font-family="Helvetica Neue, Helvetica, Arial, sans-serif">AWAY_TEAM</text></g><g class="relationship" transform="translate(148.38495156155608 30.138765968067773) rotate(312.30831295888106)"><path class="b-outline" fill="#A5ABB6" stroke="none" d="M 32.5 0.5 L 94.34677691197268 0.5 L 94.34677691197268 -0.5 L 32.5 -0.5 Z M 151.47568316197268 0.5 L 213.32246007394536 0.5 L 213.32246007394536 3.5 L 220.32246007394536 0 L 213.32246007394536 -3.5 L 213.32246007394536 -0.5 L 151.47568316197268 -0.5 Z"/><text text-anchor="middle" pointer-events="none" font-size="8px" fill="#000000" x="122.91123003697268" y="3" font-family="Helvetica Neue, Helvetica, Arial, sans-serif">LAST_EVENT</text></g><g class="relationship" transform="translate(148.38495156155608 30.138765968067773) rotate(270.20670287235123)"><path class="b-outline" fill="#A5ABB6" stroke="none" d="M 32.5 0.5 L 67.5478622459352 0.5 L 67.5478622459352 -0.5 L 32.5 -0.5 Z M 116.6689559959352 0.5 L 151.7168182418704 0.5 L 151.7168182418704 3.5 L 158.7168182418704 0 L 151.7168182418704 -3.5 L 151.7168182418704 -0.5 L 116.6689559959352 -0.5 Z"/><text text-anchor="middle" pointer-events="none" font-size="8px" fill="#000000" x="92.1084091209352" y="3" font-family="Helvetica Neue, Helvetica, Arial, sans-serif">IN_PERIOD</text></g><g class="relationship" transform="translate(149.07479259646738 -161.07680792143282) rotate(180.66522796033996)"><path class="b-outline" fill="#A5ABB6" stroke="none" d="M 32.5 0.5 L 71.12692583441908 0.5 L 71.12692583441908 -0.5 L 32.5 -0.5 Z M 117.42770708441908 0.5 L 156.05463291883817 0.5 L 156.05463291883817 3.5 L 163.05463291883817 0 L 156.05463291883817 -3.5 L 156.05463291883817 -0.5 L 117.42770708441908 -0.5 Z"/><text text-anchor="middle" pointer-events="none" font-size="8px" fill="#000000" x="94.27731645941908" y="3" transform="rotate(180 94.27731645941908 0)" font-family="Helvetica Neue, Helvetica, Arial, sans-serif">IN_MATCH</text></g><g class="relationship" transform="translate(-38.9671654122681 -163.26015179721838) rotate(271.2723873805018)"><path class="b-outline" fill="#A5ABB6" stroke="none" d="M 24.018736134675446,6.953439040707552 L 24.277555179777966,5.987513214418485 A 179.42505497346386 179.42505497346386 0 0 0 40.45113124066333,9.530332009548175 L 40.28245331918079,10.516003232017596 A 180.42505497346386 180.42505497346386 0 0 1 24.018736134675446,6.953439040707552 Z M 96.87311517835731,11.195167376615842 L 96.7281411967408,10.20573190896053 A 179.42505497346386 179.42505497346386 0 0 0 112.98208383917064,7.052087003621777 L 112.27539478835868,4.136509773387171 L 119.90287888485338,5.889075423432978 L 113.92433590691991,10.93952331060125 L 113.21764685610795,8.023946080366645 A 180.42505497346386 180.42505497346386 0 0 1 96.87311517835731,11.195167376615842"/><text text-anchor="middle" pointer-events="none" font-size="8px" fill="#000000" x="68.55698912808087" y="15.588317593771848" font-family="Helvetica Neue, Helvetica, Arial, sans-serif">HOME_TEAM</text></g><g class="relationship" transform="translate(323.61315861043516 -162.37839865209293) rotate(539.5727342082995)"><path class="b-outline" fill="#A5ABB6" stroke="none" d="M 40 0.5 L 53.035281447151135 0.5 L 53.035281447151135 -0.5 L 40 -0.5 Z M 122.00793769715114 0.5 L 135.04321914430227 0.5 L 135.04321914430227 3.5 L 142.04321914430227 0 L 135.04321914430227 -3.5 L 135.04321914430227 -0.5 L 122.00793769715114 -0.5 Z"/><text text-anchor="middle" pointer-events="none" font-size="8px" fill="#000000" x="87.52160957215114" y="3" transform="rotate(180 87.52160957215114 0)" font-family="Helvetica Neue, Helvetica, Arial, sans-serif">MATCH_PERIOD</text></g><g class="relationship" transform="translate(323.61315861043516 -162.37839865209293) rotate(492.30831295888106)"><path class="b-outline" fill="#A5ABB6" stroke="none" d="M 34.39101615137755,20.433012701892217 L 34.89101615137755,19.566987298107776 A 190.69312300919913 190.69312300919913 0 0 0 101.37830180415266,42.91860759496524 L 101.2269629650985,43.9070895400678 A 191.69312300919913 191.69312300919913 0 0 1 34.39101615137755,20.433012701892217 Z M 159.61268792566815,43.85092553884445 L 159.45944763301412,42.86273658287129 A 190.69312300919913 190.69312300919913 0 0 0 225.90168421561077,19.383245066559233 L 224.3966885705132,16.788059503205947 L 232.2079498042847,16.304119488557102 L 227.90834507574087,22.84349248436362 L 226.4033494306433,20.248306921010332 A 191.69312300919913 191.69312300919913 0 0 1 159.61268792566815,43.85092553884445"/><text text-anchor="middle" pointer-events="none" font-size="8px" fill="#000000" x="130.42149531450738" y="48.61493299480563" transform="rotate(180 130.42149531450738 45.61493299480563)" font-family="Helvetica Neue, Helvetica, Arial, sans-serif">POSSESSION</text></g><g class="relationship" transform="translate(323.61315861043516 -162.37839865209293) rotate(360.10548923974693)"><path class="b-outline" fill="#A5ABB6" stroke="none" d="M 38.50762352901147,10.835724717245364 L 38.766442574113995,9.869798890956295 A 149.876857196347 149.876857196347 0 0 0 61.321794126469875,14.094759350693977 L 61.213467638886144,15.088874722312283 A 150.876857196347 150.876857196347 0 0 1 38.50762352901147,10.835724717245364 Z M 98.21962423903858,14.555215155940118 L 98.0826768172381,13.5646368381569 A 149.876857196347 149.876857196347 0 0 0 120.50681952642506,8.691034649352092 L 119.647125921424,5.816851825396685 L 127.35652838315453,7.1641133750088475 L 121.65307766642648,12.523278414625967 L 120.79338406142543,9.64909559067056 A 150.876857196347 150.876857196347 0 0 1 98.21962423903858,14.555215155940118"/><text text-anchor="middle" pointer-events="none" font-size="8px" fill="#000000" x="79.72576157512944" y="18.461095181376123" font-family="Helvetica Neue, Helvetica, Arial, sans-serif">PLAYER</text></g></g><g class="layer nodes"><g class="node" aria-label="graph-node-2" transform="translate(-220.13071289545795,-160.7032392521939)"><circle class="b-outline" cx="0" cy="0" r="25" fill="#A5ABB6" stroke="#9AA1AC" stroke-width="2px"/><text class="caption" text-anchor="middle" pointer-events="none" x="0" y="5" font-size="10px" fill="#FFFFFF" font-family="Helvetica Neue, Helvetica, Arial, sans-serif"> Stadium</text></g><g class="node" aria-label="graph-node-11" transform="translate(-35.76514317406827,-307.42395192652714)"><circle class="b-outline" cx="0" cy="0" r="25" fill="#F16667" stroke="#eb2728" stroke-width="2px"/><text class="caption" text-anchor="middle" pointer-events="none" x="0" y="5" font-size="10px" fill="#FFFFFF" font-family="Helvetica Neue, Helvetica, Arial, sans-serif"> Team</text></g><g class="node" aria-label="graph-node-5" transform="translate(474.9209540763872,-162.0998203260401)"><circle class="b-outline" cx="0" cy="0" r="25" fill="#8DCC93" stroke="#5db665" stroke-width="2px"/><text class="caption" text-anchor="middle" pointer-events="none" x="0" y="5" font-size="10px" fill="#2A2C34" font-family="Helvetica Neue, Helvetica, Arial, sans-serif"> Player</text></g><g class="node" aria-label="graph-node-14" transform="translate(149.07479259646738,-161.07680792143282)"><circle class="b-outline" cx="0" cy="0" r="32.5" fill="#A5ABB6" stroke="#9AA1AC" stroke-width="2px"/><text class="caption" text-anchor="middle" pointer-events="none" x="0" y="5" font-size="10px" fill="#FFFFFF" font-family="Helvetica Neue, Helvetica, Arial, sans-serif"> MatchPeriod</text></g><g class="node" aria-label="graph-node-16" transform="translate(148.38495156155608,30.138765968067773)"><circle class="b-outline" cx="0" cy="0" r="32.5" fill="#ECB5C9" stroke="#da7298" stroke-width="2px"/><text class="caption" text-anchor="middle" pointer-events="none" x="0" y="5" font-size="10px" fill="#2A2C34" font-family="Helvetica Neue, Helvetica, Arial, sans-serif"> Possession</text></g><g class="node" aria-label="graph-node-10" transform="translate(-38.9671654122681,-163.26015179721838)"><circle class="b-outline" cx="0" cy="0" r="25" fill="#A5ABB6" stroke="#9AA1AC" stroke-width="2px"/><text class="caption" text-anchor="middle" pointer-events="none" x="0" y="5" font-size="10px" fill="#FFFFFF" font-family="Helvetica Neue, Helvetica, Arial, sans-serif"> Match</text></g><g class="node" aria-label="graph-node-15" transform="translate(323.61315861043516,-162.37839865209293)"><circle class="b-outline" cx="0" cy="0" r="40" fill="#569480" stroke="#447666" stroke-width="2px"/><text class="caption" text-anchor="middle" pointer-events="none" x="0" y="5" font-size="10px" fill="#FFFFFF" font-family="Helvetica Neue, Helvetica, Arial, sans-serif"> Event</text></g></g></svg>