<svg xmlns="http://www.w3.org/2000/svg" width="940.577392578125" height="95.47490692138672" viewBox="-490.4043884277344 -63.532859802246094 940.577392578125 95.47490692138672"><title>Neo4j Graph Visualization</title><desc>Created using Neo4j (http://www.neo4j.com/)</desc><g class="layer relationships"><g class="relationship" transform="translate(-446.4043860185274 -12.919119356009531) rotate(360.1544107028904)"><path class="b-outline" fill="#A5ABB6" stroke="none" d="M 40 0.5 L 51.19501947955138 0.5 L 51.19501947955138 -0.5 L 40 -0.5 Z M 109.65205072955138 0.5 L 120.84707020910275 0.5 L 120.84707020910275 3.5 L 127.84707020910275 0 L 120.84707020910275 -3.5 L 120.84707020910275 -0.5 L 109.65205072955138 -0.5 Z"/><text text-anchor="middle" pointer-events="none" font-size="8px" fill="#000000" x="80.42353510455138" y="3" font-family="Helvetica Neue, Helvetica, Arial, sans-serif">NEXT_EVENT</text></g><g class="relationship" transform="translate(-278.5579253365556 -12.466776217704698) rotate(360.1360043025623)"><path class="b-outline" fill="#A5ABB6" stroke="none" d="M 40 0.5 L 53.38600935328145 0.5 L 53.38600935328145 -0.5 L 40 -0.5 Z M 111.84304060328145 0.5 L 125.2290499565629 0.5 L 125.2290499565629 3.5 L 132.2290499565629 0 L 125.2290499565629 -3.5 L 125.2290499565629 -0.5 L 111.84304060328145 -0.5 Z"/><text text-anchor="middle" pointer-events="none" font-size="8px" fill="#000000" x="82.61452497828145" y="3" font-family="Helvetica Neue, Helvetica, Arial, sans-serif">NEXT_EVENT</text></g><g class="relationship" transform="translate(-106.32936059724815 -12.05795256573316) rotate(359.31464641368075)"><path class="b-outline" fill="#A5ABB6" stroke="none" d="M 40 0.5 L 52.60765059854681 0.5 L 52.60765059854681 -0.5 L 40 -0.5 Z M 111.06468184854681 0.5 L 123.67233244709362 0.5 L 123.67233244709362 3.5 L 130.67233244709362 0 L 123.67233244709362 -3.5 L 123.67233244709362 -0.5 L 111.06468184854681 -0.5 Z"/><text text-anchor="middle" pointer-events="none" font-size="8px" fill="#000000" x="81.83616622354681" y="3" font-family="Helvetica Neue, Helvetica, Arial, sans-serif">NEXT_EVENT</text></g><g class="relationship" transform="translate(64.3307619510476 -14.099431130870798) rotate(359.4042338994277)"><path class="b-outline" fill="#A5ABB6" stroke="none" d="M 40 0.5 L 50.581363729278536 0.5 L 50.581363729278536 -0.5 L 40 -0.5 Z M 109.03839497927854 0.5 L 119.61975870855707 0.5 L 119.61975870855707 3.5 L 126.61975870855707 0 L 119.61975870855707 -3.5 L 119.61975870855707 -0.5 L 109.03839497927854 -0.5 Z"/><text text-anchor="middle" pointer-events="none" font-size="8px" fill="#000000" x="79.80987935427854" y="3" font-family="Helvetica Neue, Helvetica, Arial, sans-serif">NEXT_EVENT</text></g><g class="relationship" transform="translate(230.94151327092067 -15.83192549599896) rotate(358.79007827755186)"><path class="b-outline" fill="#A5ABB6" stroke="none" d="M 40 0.5 L 54.90676341119898 0.5 L 54.90676341119898 -0.5 L 40 -0.5 Z M 113.36379466119898 0.5 L 128.27055807239796 0.5 L 128.27055807239796 3.5 L 135.27055807239796 0 L 128.27055807239796 -3.5 L 128.27055807239796 -0.5 L 113.36379466119898 -0.5 Z"/><text text-anchor="middle" pointer-events="none" font-size="8px" fill="#000000" x="84.13527903619898" y="3" font-family="Helvetica Neue, Helvetica, Arial, sans-serif">NEXT_EVENT</text></g></g><g class="layer nodes"><g class="node" aria-label="graph-node2251" transform="translate(406.17299336226534,-19.53285943306136)"><circle class="b-outline" cx="0" cy="0" r="40" fill="#C990C0" stroke="#b261a5" stroke-width="2px"/><text class="caption" text-anchor="middle" pointer-events="none" x="0" y="5" font-size="10px" fill="#FFFFFF" font-family="Helvetica Neue, Helvetica, Arial, sans-serif"> Carry</text></g><g class="node" aria-label="graph-node45" transform="translate(-446.4043860185274,-12.919119356009531)"><circle class="b-outline" cx="0" cy="0" r="40" fill="#D9C8AE" stroke="#c0a378" stroke-width="2px"/><text class="caption" text-anchor="middle" pointer-events="none" x="0" y="5" font-size="10px" fill="#2A2C34" font-family="Helvetica Neue, Helvetica, Arial, sans-serif"> Pass</text></g><g class="node" aria-label="graph-node1282" transform="translate(-278.5579253365556,-12.466776217704698)"><circle class="b-outline" cx="0" cy="0" r="40" fill="#C990C0" stroke="#b261a5" stroke-width="2px"/><text class="caption" text-anchor="middle" pointer-events="none" x="0" y="5" font-size="10px" fill="#FFFFFF" font-family="Helvetica Neue, Helvetica, Arial, sans-serif"> Ball Receipt*</text></g><g class="node" aria-label="graph-node2250" transform="translate(-106.32936059724815,-12.05795256573316)"><circle class="b-outline" cx="0" cy="0" r="40" fill="#C990C0" stroke="#b261a5" stroke-width="2px"/><text class="caption" text-anchor="middle" pointer-events="none" x="0" y="5" font-size="10px" fill="#FFFFFF" font-family="Helvetica Neue, Helvetica, Arial, sans-serif"> Carry</text></g><g class="node" aria-label="graph-node46" transform="translate(64.3307619510476,-14.099431130870798)"><circle class="b-outline" cx="0" cy="0" r="40" fill="#D9C8AE" stroke="#c0a378" stroke-width="2px"/><text class="caption" text-anchor="middle" pointer-events="none" x="0" y="5" font-size="10px" fill="#2A2C34" font-family="Helvetica Neue, Helvetica, Arial, sans-serif"> Pass</text></g><g class="node" aria-label="graph-node1283" transform="translate(230.94151327092067,-15.83192549599896)"><circle class="b-outline" cx="0" cy="0" r="40" fill="#C990C0" stroke="#b261a5" stroke-width="2px"/><text class="caption" text-anchor="middle" pointer-events="none" x="0" y="5" font-size="10px" fill="#FFFFFF" font-family="Helvetica Neue, Helvetica, Arial, sans-serif"> Ball Receipt*</text></g></g></svg>